name ./resultDataOpenSim/trcMotMarkerGrf/sub09/grf-04-01.mot
datacolumns 19
datarows 27
range 1.51600000 1.62000000
endheader

                time	     ground_force_vx	     ground_force_vy	     ground_force_vz	     ground_force_px	     ground_force_py	     ground_force_pz	   l_ground_force_vx	   l_ground_force_vy	   l_ground_force_vz	   l_ground_force_px	   l_ground_force_py	   l_ground_force_pz	     ground_torque_x	     ground_torque_y	     ground_torque_z	   l_ground_torque_x	   l_ground_torque_y	   l_ground_torque_z	
          1.51600000	        -36.82311248	        461.89851696	        -11.86237729	          1.10351896	          0.00000000	          0.11402153	          0.00000000	          0.00000000	          0.00000000	          0.00000000	          0.00000000	          0.00000000	          0.00000000	          2.42700218	          0.00000000	          0.00000000	          0.00000000	          0.00000000	
          1.52000000	        -34.40286431	        459.99662541	        -14.45393206	          1.10398024	          0.00000000	          0.11399647	          0.00000000	          0.00000000	          0.00000000	          0.00000000	          0.00000000	          0.00000000	          0.00000000	          2.04745148	          0.00000000	          0.00000000	          0.00000000	          0.00000000	
          1.52400000	        -32.17274227	        458.30098027	        -16.90549776	          1.10437913	          0.00000000	          0.11398323	          0.00000000	          0.00000000	          0.00000000	          0.00000000	          0.00000000	          0.00000000	          0.00000000	          1.70303384	          0.00000000	          0.00000000	          0.00000000	          0.00000000	
          1.52800000	        -30.22508411	        456.87859395	        -18.71732469	          1.10471782	          0.00000000	          0.11395306	          0.00000000	          0.00000000	          0.00000000	          0.00000000	          0.00000000	          0.00000000	          0.00000000	          1.45880284	          0.00000000	          0.00000000	          0.00000000	          0.00000000	
          1.53200000	        -28.57809430	        455.78505175	        -19.52899152	          1.10500379	          0.00000000	          0.11388812	          0.00000000	          0.00000000	          0.00000000	          0.00000000	          0.00000000	          0.00000000	          0.00000000	          1.35917791	          0.00000000	          0.00000000	          0.00000000	          0.00000000	
          1.53600000	        -27.18589777	        455.02888023	        -19.16876418	          1.10524520	          0.00000000	          0.11378196	          0.00000000	          0.00000000	          0.00000000	          0.00000000	          0.00000000	          0.00000000	          0.00000000	          1.42234035	          0.00000000	          0.00000000	          0.00000000	          0.00000000	
          1.54000000	        -25.95832258	        454.57162638	        -17.67738427	          1.10545550	          0.00000000	          0.11363719	          0.00000000	          0.00000000	          0.00000000	          0.00000000	          0.00000000	          0.00000000	          0.00000000	          1.63901716	          0.00000000	          0.00000000	          0.00000000	          0.00000000	
          1.54400000	        -24.78316579	        454.35333214	        -15.29847309	          1.10565225	          0.00000000	          0.11346432	          0.00000000	          0.00000000	          0.00000000	          0.00000000	          0.00000000	          0.00000000	          0.00000000	          1.97477483	          0.00000000	          0.00000000	          0.00000000	          0.00000000	
          1.54800000	        -23.55310806	        454.31116294	        -12.43460769	          1.10584076	          0.00000000	          0.11328116	          0.00000000	          0.00000000	          0.00000000	          0.00000000	          0.00000000	          0.00000000	          0.00000000	          2.37557303	          0.00000000	          0.00000000	          0.00000000	          0.00000000	
          1.55200000	        -22.19168231	        454.38972762	         -9.57701313	          1.10602095	          0.00000000	          0.11310792	          0.00000000	          0.00000000	          0.00000000	          0.00000000	          0.00000000	          0.00000000	          0.00000000	          2.77660384	          0.00000000	          0.00000000	          0.00000000	          0.00000000	
          1.55600000	        -20.66680885	        454.55570445	         -7.21802761	          1.10619500	          0.00000000	          0.11295915	          0.00000000	          0.00000000	          0.00000000	          0.00000000	          0.00000000	          0.00000000	          0.00000000	          3.11377977	          0.00000000	          0.00000000	          0.00000000	          0.00000000	
          1.56000000	        -18.98847016	        454.80959726	         -5.75851130	          1.10636055	          0.00000000	          0.11284046	          0.00000000	          0.00000000	          0.00000000	          0.00000000	          0.00000000	          0.00000000	          0.00000000	          3.33594311	          0.00000000	          0.00000000	          0.00000000	          0.00000000	
          1.56400000	        -17.19625205	        455.18311196	         -5.42820827	          1.10651061	          0.00000000	          0.11275193	          0.00000000	          0.00000000	          0.00000000	          0.00000000	          0.00000000	          0.00000000	          0.00000000	          3.41488530	          0.00000000	          0.00000000	          0.00000000	          0.00000000	
          1.56800000	        -15.34450285	        455.72885195	         -6.24075005	          1.10663531	          0.00000000	          0.11269219	          0.00000000	          0.00000000	          0.00000000	          0.00000000	          0.00000000	          0.00000000	          0.00000000	          3.35042702	          0.00000000	          0.00000000	          0.00000000	          0.00000000	
          1.57200000	        -13.48557346	        456.51334056	         -7.99291036	          1.10672245	          0.00000000	          0.11265552	          0.00000000	          0.00000000	          0.00000000	          0.00000000	          0.00000000	          0.00000000	          0.00000000	          3.16924094	          0.00000000	          0.00000000	          0.00000000	          0.00000000	
          1.57600000	        -11.65188222	        457.60988437	        -10.30629481	          1.10677157	          0.00000000	          0.11262583	          0.00000000	          0.00000000	          0.00000000	          0.00000000	          0.00000000	          0.00000000	          0.00000000	          2.91811903	          0.00000000	          0.00000000	          0.00000000	          0.00000000	
          1.58000000	         -9.84622317	        459.08996418	        -12.70655612	          1.10679644	          0.00000000	          0.11258653	          0.00000000	          0.00000000	          0.00000000	          0.00000000	          0.00000000	          0.00000000	          0.00000000	          2.65395771	          0.00000000	          0.00000000	          0.00000000	          0.00000000	
          1.58400000	         -8.04687970	        461.01302863	        -14.72195681	          1.10679622	          0.00000000	          0.11252435	          0.00000000	          0.00000000	          0.00000000	          0.00000000	          0.00000000	          0.00000000	          0.00000000	          2.43313899	          0.00000000	          0.00000000	          0.00000000	          0.00000000	
          1.58800000	         -6.22204237	        463.41611782	        -15.97133340	          1.10677814	          0.00000000	          0.11243824	          0.00000000	          0.00000000	          0.00000000	          0.00000000	          0.00000000	          0.00000000	          0.00000000	          2.30227060	          0.00000000	          0.00000000	          0.00000000	          0.00000000	
          1.59200000	         -4.34119433	        466.31709017	        -16.22703875	          1.10675274	          0.00000000	          0.11233493	          0.00000000	          0.00000000	          0.00000000	          0.00000000	          0.00000000	          0.00000000	          0.00000000	          2.29116711	          0.00000000	          0.00000000	          0.00000000	          0.00000000	
          1.59600000	         -2.37956554	        469.72526958	        -15.45625491	          1.10672001	          0.00000000	          0.11222118	          0.00000000	          0.00000000	          0.00000000	          0.00000000	          0.00000000	          0.00000000	          0.00000000	          2.40836305	          0.00000000	          0.00000000	          0.00000000	          0.00000000	
          1.60000000	         -0.31927747	        473.64402409	        -13.83134749	          1.10667881	          0.00000000	          0.11210560	          0.00000000	          0.00000000	          0.00000000	          0.00000000	          0.00000000	          0.00000000	          0.00000000	          2.63954754	          0.00000000	          0.00000000	          0.00000000	          0.00000000	
          1.60400000	          1.85326665	        478.06501384	        -11.69806469	          1.10661095	          0.00000000	          0.11199897	          0.00000000	          0.00000000	          0.00000000	          0.00000000	          0.00000000	          0.00000000	          0.00000000	          2.94957944	          0.00000000	          0.00000000	          0.00000000	          0.00000000	
          1.60800000	          4.15112036	        482.95629712	         -9.50869493	          1.10650560	          0.00000000	          0.11191592	          0.00000000	          0.00000000	          0.00000000	          0.00000000	          0.00000000	          0.00000000	          0.00000000	          3.28848213	          0.00000000	          0.00000000	          0.00000000	          0.00000000	
          1.61200000	          6.58745412	        488.25719871	         -7.73427714	          1.10635943	          0.00000000	          0.11187038	          0.00000000	          0.00000000	          0.00000000	          0.00000000	          0.00000000	          0.00000000	          0.00000000	          3.60079343	          0.00000000	          0.00000000	          0.00000000	          0.00000000	
          1.61600000	          9.17623440	        493.88862228	         -6.77222934	          1.10616949	          0.00000000	          0.11187823	          0.00000000	          0.00000000	          0.00000000	          0.00000000	          0.00000000	          0.00000000	          0.00000000	          3.83642629	          0.00000000	          0.00000000	          0.00000000	          0.00000000	
          1.62000000	         11.93576101	        499.76419191	         -6.86939329	          1.10594581	          0.00000000	          0.11194422	          0.00000000	          0.00000000	          0.00000000	          0.00000000	          0.00000000	          0.00000000	          0.00000000	          3.96056803	          0.00000000	          0.00000000	          0.00000000	          0.00000000	
